<?xml version="1.0" encoding="utf-8"?>
<!-- Generator: Adobe Illustrator 25.1.0, SVG Export Plug-In . SVG Version: 6.00 Build 0)  -->
<svg version="1.1" id="Layer_1" xmlns="http://www.w3.org/2000/svg" xmlns:xlink="http://www.w3.org/1999/xlink" x="0px" y="0px"
	 viewBox="0 0 49.99 55.73" style="enable-background:new 0 0 49.99 55.73;" xml:space="preserve">
<style type="text/css">
	.st0{fill:#7E2435;}
	.st1{fill:#1C83FD;}
	.st2{fill:url(#SVGID_1_);}
	.st3{fill:url(#SVGID_2_);}
</style>
<g>
	<path class="st0" d="M11.21,13.36v0.01c-0.27,0.04-0.53,0.1-0.78,0.19C10.68,13.47,10.94,13.4,11.21,13.36z"/>
	<path class="st1" d="M10.43,13.56c0.25-0.09,0.51-0.15,0.78-0.19v-0.01C10.94,13.4,10.68,13.47,10.43,13.56z M32.83,10.94
		c0,0.04-0.01,0.09-0.01,0.14v0.01c0.02,0.01,0.03,0.02,0.04,0.03c0.01-0.01,0.02-0.03,0.02-0.04c0-0.01,0.01-0.02,0.01-0.03
		C32.89,11,32.86,10.96,32.83,10.94z"/>
	<linearGradient id="SVGID_1_" gradientUnits="userSpaceOnUse" x1="-8.1687" y1="26.1016" x2="40.0713" y2="29.9416">
		<stop  offset="0" style="stop-color:#7B2234"/>
		<stop  offset="1" style="stop-color:#FB3437"/>
	</linearGradient>
	<path class="st2" d="M45.15,19.09c-0.34-2.11-1.16-4.04-2.84-5.33c-0.33-0.31-0.68-0.59-1.03-0.84c-0.35-0.25-0.72-0.47-1.09-0.67
		c-2.3-1.24-5.04-1.5-7.6-1.71c-2.85-0.23-5.72-0.18-8.55,0.15c0.41,0,0.82,0.01,1.23,0.02c-3.53-0.06-7.1,0.47-10.5,1.39
		c-3.97,1.08-9.42,2.66-10.09,7.48c-0.52,3.67,2.04,6.89,4.33,9.43c3.51,3.89,7.35,7.49,11.45,10.75c2.11,1.67,4.28,3.25,6.52,4.74
		c2.1,1.4,4.25,3.01,6.73,3.63c7.96,1.99,9.17-9.95,10.13-15.04C44.71,28.49,45.89,23.82,45.15,19.09z M11.21,13.37
		c-0.27,0.04-0.53,0.1-0.78,0.19c0.25-0.09,0.51-0.16,0.78-0.2V13.37z M32.82,11.08c0-0.05,0.01-0.1,0.01-0.14
		c0.03,0.02,0.06,0.06,0.06,0.11c0.01-0.01,0.01-0.01,0.01-0.02c0,0.02,0.01,0.05,0.01,0.08c0-0.02,0-0.04-0.02-0.06
		c0,0.01-0.01,0.02-0.01,0.03c0,0.01-0.01,0.03-0.02,0.04C32.85,11.11,32.84,11.1,32.82,11.08L32.82,11.08z M40.58,28.75
		c-0.01,0.61-0.02,1.23-0.09,1.84c-0.03,0.27-0.07,0.54-0.13,0.81c-0.38,1.78-1.52,3.21-3.41,3.35c-6.6,0.48-13.25,0.5-19.84-0.13
		c-0.22-0.12-0.42-0.25-0.6-0.4c-1.78-1.49-1.74-3.64-1.85-5.79c-0.12-2.46-0.27-5.08,0.03-7.54c0.17-1.4,0.47-3.26,1.74-4.1
		c0.95-0.64,2.18-0.54,3.27-0.61c1.35-0.07,2.7-0.18,4.06-0.22c2.32-0.07,4.64-0.08,6.96-0.02c2.19,0.06,4.49-0.21,6.62,0.44
		c0.96,0.29,1.86,0.82,2.43,1.68c0.82,1.25,0.72,3,0.79,4.44C40.66,24.58,40.62,26.67,40.58,28.75z"/>
	<linearGradient id="SVGID_2_" gradientUnits="userSpaceOnUse" x1="-7.8909" y1="22.6121" x2="40.3491" y2="26.4521">
		<stop  offset="0" style="stop-color:#7B2234"/>
		<stop  offset="1" style="stop-color:#FB3437"/>
	</linearGradient>
	<path class="st3" d="M31.06,25.76c-1.86,0.95-3.73,1.91-5.59,2.87c-0.29,0.29-0.53,0.17-0.54-0.17c-0.02-2.15-0.02-4.29,0-6.44
		c0-0.34,0.23-0.46,0.53-0.17c1.86,0.96,3.72,1.92,5.58,2.89C31.66,25.06,31.77,25.4,31.06,25.76z"/>
</g>
</svg>
