<?xml version="1.0" encoding="utf-8"?>
<!-- Generator: Adobe Illustrator 25.1.0, SVG Export Plug-In . SVG Version: 6.00 Build 0)  -->
<svg version="1.1" id="Layer_1" xmlns="http://www.w3.org/2000/svg" xmlns:xlink="http://www.w3.org/1999/xlink" x="0px" y="0px"
	 viewBox="0 0 49.99 55.73" style="enable-background:new 0 0 49.99 55.73;" xml:space="preserve">
<style type="text/css">
	.st0{fill:#3541DE;}
	.st1{fill:url(#SVGID_1_);}
</style>
<g>
	<path class="st0" d="M23.73,39.69v0.04c0,0.07-0.01,0.16-0.02,0.23v-0.29C23.72,39.68,23.72,39.69,23.73,39.69z"/>
	<linearGradient id="SVGID_1_" gradientUnits="userSpaceOnUse" x1="45.5226" y1="33.016" x2="5.9226" y2="16.276">
		<stop  offset="0.0223" style="stop-color:#3A97CE"/>
		<stop  offset="1" style="stop-color:#3A3990"/>
	</linearGradient>
	<path class="st1" d="M42.16,29.19c-0.23-2.81-0.59-5.61-1.01-8.4c-0.52-3.42-1.14-6.85-2.39-10.07c-0.73-1.87-1.8-3.78-3.63-4.61
		c-3.9-1.77-8.29,1.49-11.31,3.63c-2.66,1.89-5.48,3.51-8.06,5.51c-3.22,2.5-7.48,5.89-8.14,10.19c-0.32,2.11,0.32,4.28,1.39,6.13
		c2.36,4.09,5.77,7.5,9.5,10.37c1.89,1.45,3.88,2.78,5.92,4c2.09,1.24,4.3,2.58,6.59,3.42c1.83,0.67,3.84,0.99,5.74,0.54
		c4.98-1.16,5.42-6.73,5.62-10.93C42.53,35.71,42.43,32.45,42.16,29.19z M14.92,21.86c0-0.04-0.01-0.07-0.01-0.11
		c0.01,0.01,0.02,0.01,0.04,0.02C14.94,21.8,14.93,21.84,14.92,21.86z M33.31,28.77c-0.13,0.45-0.41,0.83-0.92,0.98
		c-0.84,0.25-1.9-0.42-2.57,0.16c-0.38,0.32-0.4,0.89-0.4,1.38c0,1.93,0,3.86,0,5.79c0,0.97,0,1.93,0,2.9c0,0.95,0.62,2.7-0.53,2.89
		c-2.3,0.38-3.1,0.35-4.37-0.17c-0.17-0.07-0.35-0.16-0.42-0.33c-0.05-0.12-0.03-0.25-0.02-0.38c0.28-2.1,0.07-4.18,0.07-6.29
		c0.1-1.53,0.14-3.83,0-5.07c-0.1-0.92-1.95-0.33-2.71-0.79c-1.01-0.62-0.6-1.97-0.6-3.15c0-0.68-0.18-2.1,0.48-2.28
		c0.28-0.08,1.67,0.08,1.96,0.03c0.58-0.09,0.96-0.67,1.07-1.24s0.01-1.16,0.01-1.74c0.01-1.45,0.71-2.88,1.84-3.79
		c2.04-1.64,5.13-1.1,7.55-0.87c0.01,1.03,0.01,2.05-0.01,3.08c0,0.31-0.01,0.64-0.18,0.9c-0.62,0.95-2.23-0.09-3.22,0.47
		c-0.67,0.39-0.72,1.33-0.69,2.1c0.01,0.31,0.03,0.63,0.22,0.87c0.56,0.7,1.68,0.05,2.57,0.19c1.22,0.19,1,1.94,0.96,2.8
		c-0.01,0.3,0,0.59,0,0.89C33.39,28.33,33.37,28.56,33.31,28.77z"/>
</g>
</svg>
