<?xml version="1.0" encoding="utf-8"?>
<!-- Generator: Adobe Illustrator 25.1.0, SVG Export Plug-In . SVG Version: 6.00 Build 0)  -->
<svg version="1.1" id="Layer_1" xmlns="http://www.w3.org/2000/svg" xmlns:xlink="http://www.w3.org/1999/xlink" x="0px" y="0px"
	 viewBox="0 0 49.99 55.73" style="enable-background:new 0 0 49.99 55.73;" xml:space="preserve">
<style type="text/css">
	.st0{fill:url(#SVGID_1_);}
	.st1{fill:url(#SVGID_2_);}
	.st2{fill:url(#SVGID_3_);}
</style>
<g>
	<linearGradient id="SVGID_1_" gradientUnits="userSpaceOnUse" x1="46.7558" y1="33.1739" x2="11.3565" y2="24.1358">
		<stop  offset="0" style="stop-color:#FDB454"/>
		<stop  offset="0.4944" style="stop-color:#FD1A76"/>
		<stop  offset="1" style="stop-color:#8621C1"/>
	</linearGradient>
	<path class="st0" d="M44.63,37.51c-0.29-1.66-0.78-3.26-1.17-4.51c-2.35-7.49-5.77-15.86-11.22-21.64
		c-1.78-1.89-4.25-3.62-6.8-3.07c-3.5,0.75-6.56,5.51-8.61,8.16c-2.94,3.81-5.57,7.85-8.05,11.97c-2.36,3.91-6,9.37-1.44,13.19
		c1.26,1.05,2.8,1.7,4.34,2.26c7.32,2.69,15.18,3.87,22.98,3.66c2.25-0.06,4.56-0.26,6.56-1.29C44.58,44.5,45.23,40.96,44.63,37.51z
		 M6.5,37.49c0.01-0.01,0.02-0.02,0.02-0.02c0,0.03,0,0.05,0.01,0.07C6.52,37.52,6.51,37.5,6.5,37.49z M35.59,47.16
		c0,0,0.01-0.01,0.02-0.01h0.03C35.62,47.15,35.6,47.16,35.59,47.16z M36.91,39.83c-0.07,0.13-0.14,0.26-0.22,0.38
		c-0.89,1.41-2.35,2.41-4.03,2.4c-2.91-0.02-5.82-0.03-8.73-0.05c-1.29-0.01-2.58-0.08-3.87-0.02c-1.25,0.06-2.57,0.15-3.71-0.45
		c-0.86-0.45-1.51-1.24-1.97-2.09c-0.65-1.19-0.67-2.4-0.78-3.71c-0.19-2.26,0.17-4.57,0.15-6.83c-0.03-3.5-0.74-8.04,3.12-9.82
		c1.24-0.57,2.66-0.59,4.03-0.59c3.02,0,6.05,0,9.07-0.01c1.42,0,2.89,0.01,4.21,0.56c3.11,1.3,3.32,4.32,3.33,7.23
		c0.01,2.39,0.01,4.78,0.02,7.17C37.53,35.95,37.83,38.04,36.91,39.83z"/>
	<linearGradient id="SVGID_2_" gradientUnits="userSpaceOnUse" x1="45.9866" y1="36.1869" x2="10.5872" y2="27.1488">
		<stop  offset="0" style="stop-color:#FDB454"/>
		<stop  offset="0.4944" style="stop-color:#FD1A76"/>
		<stop  offset="1" style="stop-color:#8621C1"/>
	</linearGradient>
	<path class="st1" d="M36.12,33.77c-0.04-0.87-0.1-1.74-0.11-2.56c-0.01-1.41-0.02-2.82-0.03-4.23c-0.01-1.26,0.17-2.66-0.28-3.87
		c-0.98-2.62-3.63-2.49-5.95-2.52c-3.1-0.04-6.2-0.01-9.3-0.04c-1.38-0.01-2.9,0.02-3.95,0.92c-0.65,0.55-1.03,1.35-1.21,2.18
		C14.8,25.84,15,28.37,15,30.62c0,0,0,0.03,0,0.03c0.02,1.26,0.03,2.52,0.05,3.78c0.03,1.46-0.17,2.95,0.37,4.35
		c1.09,2.8,3.87,2.59,6.37,2.59c1.87,0,3.73-0.01,5.6-0.01c1.17,0,2.36-0.06,3.53-0.01c1,0.05,1.97,0.1,2.9-0.37
		c1.2-0.61,1.93-1.92,2.17-3.25C36.22,36.48,36.19,35.11,36.12,33.77z M15.35,24.36C15.35,24.36,15.35,24.36,15.35,24.36
		L15.35,24.36C15.35,24.35,15.35,24.35,15.35,24.36C15.35,24.35,15.35,24.35,15.35,24.36z M32.49,34.37
		c-0.63,1.28-1.6,2.41-2.77,3.18c-1.91,1.25-4.55,1.36-6.71,0.77c-3.26-0.89-5.4-4.66-5.16-7.93c0.19-2.6,1.69-4.57,3.74-6.05
		c2.36-1.7,6.16-1.21,8.46,0.32c2.17,1.45,3.43,4.44,3.21,7C33.18,32.58,32.91,33.51,32.49,34.37z M34.32,23.48
		c0,0.05-0.01,0.11-0.02,0.16c-0.05,0.25-0.15,0.49-0.32,0.67c-0.33,0.38-0.92,0.51-1.39,0.32c-0.47-0.2-0.78-0.71-0.75-1.21
		c0.05-0.73,0.67-1.15,1.34-1.15C33.89,22.27,34.37,22.82,34.32,23.48z"/>
	<linearGradient id="SVGID_3_" gradientUnits="userSpaceOnUse" x1="45.9814" y1="36.2071" x2="10.5821" y2="27.169">
		<stop  offset="0" style="stop-color:#FDB454"/>
		<stop  offset="0.4944" style="stop-color:#FD1A76"/>
		<stop  offset="1" style="stop-color:#8621C1"/>
	</linearGradient>
	<path class="st2" d="M29.21,35.73c-1.81,1.36-4.38,1.67-6.42,0.62c-3.91-2.02-4.25-7.57-0.85-10.2c2.33-1.81,5.7-1.49,7.85,0.5
		c0.37,0.34,0.67,0.75,0.92,1.18c1.31,2.24,1.1,5.13-0.63,7.1C29.82,35.23,29.52,35.5,29.21,35.73z"/>
</g>
</svg>
