<?xml version="1.0" encoding="utf-8"?>
<!-- Generator: Adobe Illustrator 25.1.0, SVG Export Plug-In . SVG Version: 6.00 Build 0)  -->
<svg version="1.1" id="Layer_1" xmlns="http://www.w3.org/2000/svg" xmlns:xlink="http://www.w3.org/1999/xlink" x="0px" y="0px"
	 viewBox="0 0 30.16 35.68" style="enable-background:new 0 0 30.16 35.68;" xml:space="preserve">
<style type="text/css">
	.st0{fill:#FFFFFF;}
</style>
<g>
	<g>
		<path class="st0" d="M15.04,33.96c-0.9,0-1.67-0.35-2.25-1.01c-0.68-0.78-1.04-2-0.99-3.22c-1.01,0.04-2.02,0.01-3.01-0.02
			c-0.62-0.02-1.25-0.04-1.88-0.04l-5.15-0.01c-0.08,0-0.25,0-0.42-0.12c-0.2-0.15-0.24-0.36-0.26-0.43
			c-0.28-1.33,0.63-2.23,1.35-2.96c0.66-0.66,1.29-1.29,1.93-1.9c0.18-0.17,0.24-0.33,0.24-0.6C4.6,21.39,4.6,19.13,4.6,16.87
			l0-1.02c0-0.95,0.07-1.82,0.2-2.64c-0.01-0.57,0.27-1.29,0.5-1.86l0.04-0.11c0.25-0.63,0.56-1.24,0.93-1.82
			c0.17-0.22,0.3-0.39,0.43-0.57c0.25-0.34,0.51-0.69,0.82-1.02c0.43-0.45,0.91-0.87,1.43-1.25c0.15-0.18,0.43-0.34,0.83-0.55
			l0.09-0.05c0.3-0.17,0.6-0.33,0.91-0.48c0.54-0.25,1.11-0.45,1.65-0.63l0.09-0.03c0.04-0.11,0.06-0.31,0.07-0.44
			c0.02-0.19,0.05-0.38,0.09-0.53c0.18-0.61,0.43-1.08,0.76-1.44c0.46-0.5,1.07-0.75,1.73-0.72c0.75,0.04,1.48,0.46,1.95,1.12
			c0.4,0.56,0.49,1.14,0.54,1.68c0.03,0.35,0.15,0.39,0.2,0.4c4.3,1.24,7.42,5.19,7.57,9.61c0.08,2.28,0.07,4.6,0.06,6.84
			l-0.01,2.27c0,0.27,0.06,0.42,0.25,0.6c0.59,0.57,1.17,1.15,1.74,1.73c0.11,0.11,0.22,0.21,0.34,0.32
			c0.38,0.35,0.82,0.75,1.07,1.27l0,0c0.14,0.29,0.21,0.59,0.22,0.89c0,0.47-0.2,0.88-0.54,1.09c-0.39,0.24-0.8,0.16-1.1,0.1
			c-0.09-0.02-0.17-0.04-0.25-0.04c-0.21-0.01-0.42,0-0.64,0c-0.17,0-0.34,0.01-0.5,0.01c-0.94-0.01-1.88-0.02-2.82-0.02
			c-0.98,0-1.96,0-2.94,0.01l-2.02,0.01c0.1,1.18-0.24,2.4-0.91,3.23c-0.59,0.72-1.39,1.11-2.31,1.13
			C15.08,33.96,15.06,33.96,15.04,33.96z M12.95,28.66l-0.1,0.62c-0.15,0.94,0.01,2.23,0.7,3.02c0.39,0.45,0.9,0.7,1.53,0.66
			c0.63-0.01,1.15-0.26,1.55-0.76c0.58-0.72,0.83-1.89,0.63-2.92l-0.07-0.34l0.3-0.18c0.26-0.16,0.55-0.16,0.73-0.16l2.1-0.01
			c0.98,0,1.96-0.01,2.94-0.01c0.94,0,1.88,0.01,2.82,0.02c0.15,0,0.3,0,0.46-0.01c0.24-0.01,0.49-0.02,0.72,0
			c0.13,0.01,0.26,0.03,0.39,0.06c0.15,0.03,0.33,0.07,0.39,0.03c0.02-0.01,0.06-0.09,0.06-0.22c0-0.16-0.04-0.31-0.11-0.46l0,0
			c-0.17-0.35-0.52-0.66-0.85-0.97c-0.13-0.12-0.26-0.24-0.37-0.35c-0.57-0.57-1.15-1.15-1.73-1.71c-0.38-0.37-0.55-0.77-0.55-1.32
			l0.01-2.28c0.01-2.23,0.02-4.54-0.06-6.8c-0.14-4-2.96-7.57-6.85-8.69c-0.32-0.09-0.86-0.38-0.92-1.29
			c-0.04-0.46-0.11-0.83-0.35-1.17c-0.29-0.41-0.75-0.68-1.2-0.71c-0.35-0.02-0.67,0.11-0.93,0.39c-0.23,0.25-0.41,0.6-0.55,1.06
			c-0.03,0.1-0.04,0.23-0.06,0.36c-0.04,0.34-0.08,0.73-0.33,1.03l-0.09,0.11l-0.41,0.16c-0.54,0.19-1.06,0.36-1.55,0.6
			c-0.28,0.13-0.56,0.28-0.83,0.43l-0.13,0.07c-0.19,0.1-0.33,0.18-0.42,0.23V7.2L9.63,7.34C9.13,7.7,8.67,8.1,8.25,8.53
			c-0.27,0.28-0.5,0.59-0.74,0.92c-0.14,0.19-0.28,0.38-0.42,0.56c-0.31,0.48-0.59,1.03-0.81,1.6l-0.04,0.11
			c-0.19,0.49-0.44,1.11-0.44,1.57c-0.13,0.85-0.2,1.67-0.2,2.56l0,1.02c0,2.26,0,4.52,0.01,6.78c0,0.55-0.16,0.96-0.54,1.32
			c-0.63,0.61-1.26,1.23-1.88,1.85c-0.7,0.7-1.16,1.22-1.15,1.84l4.88,0.01c0.64,0,1.27,0.02,1.9,0.04c1.15,0.03,2.34,0.07,3.5-0.01
			L12.95,28.66z"/>
	</g>
</g>
</svg>
