<?xml version="1.0" encoding="utf-8"?>
<!-- Generator: Adobe Illustrator 25.1.0, SVG Export Plug-In . SVG Version: 6.00 Build 0)  -->
<svg version="1.1" id="Layer_1" xmlns="http://www.w3.org/2000/svg" xmlns:xlink="http://www.w3.org/1999/xlink" x="0px" y="0px"
	 viewBox="0 0 85.32 85.68" style="enable-background:new 0 0 85.32 85.68;" xml:space="preserve">
<style type="text/css">
	.st0{fill:#30BE86;}
</style>
<g>
	<g>
		<path class="st0" d="M75.05,5.01H10.62c-3.09,0-5.6,2.51-5.6,5.6v64.43c0,3.09,2.51,5.6,5.6,5.6h64.43c3.09,0,5.61-2.51,5.61-5.6
			V10.61C80.66,7.52,78.14,5.01,75.05,5.01z M10.02,10.61c0-0.33,0.28-0.6,0.6-0.6h64.43c0.33,0,0.61,0.27,0.61,0.6v40.82
			L61.01,36.78c-0.98-0.97-2.56-0.97-3.54,0L45.76,48.49L29.88,32.61c-0.98-0.98-2.56-0.98-3.54,0L10.02,48.93V10.61z M10.62,75.64
			c-0.32,0-0.6-0.28-0.6-0.6V55.99l18.09-18.08l14.12,14.12L18.61,75.64H10.62z M75.66,75.04c0,0.32-0.28,0.6-0.61,0.6H25.69
			l33.55-33.55l15.89,15.88c0.16,0.16,0.34,0.3,0.53,0.41V75.04z"/>
	</g>
	<circle class="st0" cx="63.28" cy="23.35" r="5.76"/>
</g>
</svg>
