<?xml version="1.0" encoding="utf-8"?>
<!-- Generator: Adobe Illustrator 25.1.0, SVG Export Plug-In . SVG Version: 6.00 Build 0)  -->
<svg version="1.1" id="Layer_1" xmlns="http://www.w3.org/2000/svg" xmlns:xlink="http://www.w3.org/1999/xlink" x="0px" y="0px"
	 viewBox="0 0 47.5 47.48" style="enable-background:new 0 0 47.5 47.48;" xml:space="preserve">
<style type="text/css">
	.st0{fill:url(#SVGID_1_);}
</style>
<linearGradient id="SVGID_1_" gradientUnits="userSpaceOnUse" x1="1.9294" y1="23.8871" x2="45.1294" y2="23.8871">
	<stop  offset="0.0391" style="stop-color:#ED1C24"/>
	<stop  offset="1" style="stop-color:#F99532"/>
</linearGradient>
<path class="st0" d="M23.53,2.29c-11.93,0-21.6,9.67-21.6,21.6c0,11.93,9.67,21.6,21.6,21.6c11.93,0,21.6-9.67,21.6-21.6
	C45.13,11.96,35.46,2.29,23.53,2.29z M33.34,25.41c-0.39,0.39-0.93,0.63-1.53,0.63h-6.12v6.13c0,1.19-0.98,2.16-2.16,2.16
	c-0.59,0-1.14-0.24-1.53-0.63c-0.39-0.39-0.63-0.94-0.63-1.53v-6.13h-6.12c-1.19,0-2.16-0.97-2.16-2.15c0-0.59,0.24-1.14,0.63-1.53
	c0.39-0.39,0.93-0.63,1.53-0.63h6.12V15.6c0-1.18,0.97-2.15,2.16-2.15c0.59,0,1.13,0.24,1.53,0.63c0.39,0.39,0.63,0.93,0.63,1.52
	v6.13h6.12c1.19,0,2.16,0.97,2.16,2.16C33.97,24.48,33.73,25.02,33.34,25.41z"/>
</svg>
