<?xml version="1.0" encoding="utf-8"?>
<!-- Generator: Adobe Illustrator 25.1.0, SVG Export Plug-In . SVG Version: 6.00 Build 0)  -->
<svg version="1.1" id="Layer_1" xmlns="http://www.w3.org/2000/svg" xmlns:xlink="http://www.w3.org/1999/xlink" x="0px" y="0px"
	 viewBox="0 0 86.4 93.58" style="enable-background:new 0 0 86.4 93.58;" xml:space="preserve">
<style type="text/css">
	.st0{fill:#30BE86;}
</style>
<g>
	<g>
		<g>
			<path class="st0" d="M81.5,82.5c0.15,3.51-1.52,5.92-5.42,7.81l-0.49,0.25H10.81l-0.49-0.25c-3.9-1.89-5.57-4.3-5.42-7.81
				c0.12-2.61,1.55-4.45,4.65-5.97c4.29-2.09,8.72-4.07,13.01-5.98c1.03-0.46,2.06-0.92,3.08-1.38c0.03-0.02,0.14-0.04,0.28-0.04
				c0.08,0,0.13,0.01,0.16,0.01c0.61,0.43,1.2,0.92,1.81,1.44c-0.55,0.25-1.1,0.49-1.65,0.74c-2.18,0.98-4.25,1.9-6.32,2.87
				c-0.7,0.32-1.39,0.64-2.09,0.96c-2.63,1.21-5.34,2.46-7.94,3.86C8.21,79.92,7.22,81.37,7.16,83s0.82,3.14,2.42,4.14
				c0.94,0.59,2.15,0.68,2.79,0.68c10.27,0.02,20.54,0.03,30.84,0.03c10.28,0,20.55-0.01,30.82-0.03c0.64,0,1.85-0.09,2.79-0.68
				c1.6-1,2.48-2.51,2.42-4.14s-1.05-3.08-2.73-3.99c-2.6-1.4-5.31-2.65-7.94-3.86c-0.7-0.32-1.39-0.64-2.09-0.96
				c-2.07-0.97-4.14-1.89-6.32-2.87c-0.55-0.24-1.09-0.49-1.65-0.74c0.61-0.52,1.21-1.01,1.81-1.44c0.03,0,0.08-0.01,0.16-0.01
				c0.14,0,0.25,0.02,0.28,0.04c1.02,0.46,2.05,0.92,3.08,1.38c4.29,1.91,8.72,3.89,13.01,5.98C79.95,78.05,81.38,79.89,81.5,82.5z"
				/>
		</g>
	</g>
	<g>
		<path class="st0" d="M77.13,34.54c-0.03-2.11-1.39-3.44-3.56-3.48c-0.51-0.01-1.02-0.01-1.53-0.01h-1.23l-1.23,0.01h-0.96
			l-0.04-0.96c-0.51-12.68-8.75-22.53-21-25.14h-8.83c-5.89,1.3-10.64,4.06-14.53,8.42c-3.97,4.47-6.05,9.94-6.37,16.73l-0.04,0.96
			h-2.32l-1.17-0.01c-0.49,0-0.96,0-1.44,0.01c-2.31,0.04-3.6,1.3-3.63,3.57c-0.05,4.44-0.05,8.51,0,12.44
			c0.03,2.49,1.28,3.73,3.82,3.79c0.32,0,0.64,0.01,0.96,0.03c0.46,0.01,0.93,0.03,1.4,0.03c1.39,0,2.84-0.14,4.07-1.21l0.79-0.68
			l0.65,0.82c0.06,0.09,0.12,0.15,0.17,0.21c0.14,0.16,0.3,0.34,0.4,0.61c0.19,0.5,0.34,1.01,0.5,1.5c1.14,3.69,2.86,7.02,5.12,9.9
			c0.67,0.86,1.4,1.69,2.17,2.48c3.77,3.87,8.68,6,13.82,6h0.06c3.03-0.02,5.97-0.75,8.75-2.2c4.47-2.32,7.89-6.05,10.48-11.39
			c0.73-1.5,1.31-3.07,1.91-4.73c0.28-0.76,0.56-1.52,0.86-2.28l0.5-1.31l1.07,0.91c1.17,1,2.5,1.44,4.29,1.44
			c1.11,0,2.29-0.18,3.43-0.34l0.14-0.02c1.53-0.23,2.49-1.43,2.51-3.14C77.17,43.04,77.18,38.68,77.13,34.54z M17.75,48.41h-6.28
			v-3.63c0-3.26-0.01-6.34,0.05-9.47c0.01-0.95,1.14-1.8,1.9-1.9c0.42-0.06,0.87-0.08,1.43-0.08c0.3,0,0.61,0,0.93,0.01
			c0.31,0.01,0.64,0.02,0.97,0.02h1V48.41z M58.07,59.98c-3.74,5.28-9.11,8.3-14.74,8.3h-0.15c-1.53-0.01-3.08-0.24-4.6-0.7
			c-2.77-0.84-5.13-2.2-7.24-4.14c-2.15-1.99-3.97-4.56-5.56-7.86l-0.95-1.98l2.12,0.58c0.94,0.25,1.86,0.51,2.76,0.77
			c2.02,0.58,3.94,1.13,5.88,1.54c2.29,0.48,4.68,0.67,6.98,0.86c0.12,0.01,0.23,0.02,0.34,0.02c1.08,0,1.31-0.42,1.33-1.09
			c0.02-0.37-0.07-0.66-0.26-0.85c-0.24-0.26-0.7-0.4-1.32-0.41c-4.77-0.02-9.57-1.1-15.08-3.37c-0.18-0.08-0.37-0.17-0.55-0.26
			c-0.17-0.09-0.34-0.17-0.49-0.22c-2.09-0.76-3.23-2.27-3.49-4.61c-0.95-9,0.84-16.42,5.48-22.68c3.45-4.67,7.58-7.25,12.62-7.9
			c0.73-0.09,1.47-0.14,2.19-0.14c3.87,0,7.49,1.38,10.76,4.09c5.03,4.17,8.11,9.98,9.13,17.28C64.44,45.79,62.7,53.45,58.07,59.98z
			 M64.07,30.03C60.3,19.89,52.36,13.59,43.34,13.59c-9.06,0-17.05,6.32-20.85,16.49l-1.25,3.35l-0.67-3.51
			c-0.9-4.76,2.12-12.96,8.07-17.59c4.56-3.55,9.39-5.35,14.35-5.35c3.53,0,7.12,0.92,10.68,2.73c7.7,3.93,11.96,10.82,12.34,19.93
			l0.26,6.29L64.07,30.03z M74.91,48.38h-6.33V34.06l0.49-0.29c0.04-0.02,0.07-0.05,0.1-0.06c0.13-0.09,0.34-0.24,0.65-0.28
			c0.95-0.08,1.67-0.14,2.26-0.14c2.83,0,2.83,1.79,2.83,4.75V48.38z"/>
	</g>
</g>
</svg>
