<?xml version="1.0" encoding="utf-8"?>
<!-- Generator: Adobe Illustrator 25.1.0, SVG Export Plug-In . SVG Version: 6.00 Build 0)  -->
<svg version="1.1" id="Layer_1" xmlns="http://www.w3.org/2000/svg" xmlns:xlink="http://www.w3.org/1999/xlink" x="0px" y="0px"
	 viewBox="0 0 61 57.56" style="enable-background:new 0 0 61 57.56;" xml:space="preserve">
<style type="text/css">
	.st0{fill:#FFFFFF;}
</style>
<g>
	<g>
		<path class="st0" d="M43.71,36.09c-0.04,2.54-1.57,3.93-4.14,3.97c-0.61,0.01-1.22,0-2.05,0c0,3.26,0,6.32,0,9.39
			c0,3.96-1.15,5.11-5.07,5.08c-1.54-0.01-3.08,0.03-4.62-0.02c-2.37-0.09-3.79-1.53-3.82-3.91C23.97,47.19,24,43.77,24,40.07
			c-0.89,0-1.66,0.03-2.42,0c-2.13-0.1-3.71-1.53-3.75-3.66c-0.09-4.16-0.08-8.32,0-12.48c0.04-2.15,1.56-3.68,3.71-3.71
			c6.1-0.07,12.2-0.07,18.3-0.01c2.34,0.02,3.82,1.56,3.87,3.92C43.78,28.11,43.77,32.1,43.71,36.09z"/>
		<path class="st0" d="M20.64,47.85c-0.19,1.42-1.17,2.38-2.65,2.47c-1.87,0.11-3.76,0.11-5.64,0.03c-1.84-0.08-2.97-1.45-2.99-3.48
			c-0.02-2.78,0-5.56,0-8.52c-0.64,0-1.13,0.02-1.62,0c-2.27-0.09-3.48-1.28-3.51-3.53c-0.03-3.25-0.03-6.5,0-9.75
			c0.02-1.86,1.08-3.06,2.83-3.25c0.96-0.11,1.93-0.09,2.9-0.09c2.04-0.01,4.08,0,6.03,0c-0.98,5.62-0.59,11.13-0.36,16.61
			c0.11,2.74,2.31,4.31,5.05,5.15C20.68,44.92,20.82,46.41,20.64,47.85z"/>
		<path class="st0" d="M57.3,34.23c0,2.95-1.04,4.02-3.96,4.1c-0.33,0.01-0.66,0.04-1.18,0.08c0,2.73,0.01,5.4,0,8.06
			c-0.01,2.74-1.08,3.84-3.79,3.88c-1.37,0.02-2.74,0.03-4.11,0.02c-2.2-0.02-3.4-1.19-3.44-3.34c-0.02-1.14,0-2.27,0-3.46
			c4.3-1.63,5.49-3.34,5.49-7.75c0-3.08,0.05-6.16-0.02-9.24c-0.03-1.51-0.26-3.02-0.42-4.7c0.05-0.02,0.35-0.16,0.65-0.16
			c2.45-0.02,4.91-0.07,7.35,0.01c2.3,0.08,3.4,1.3,3.42,3.6C57.31,28.3,57.31,31.26,57.3,34.23z"/>
		<path class="st0" d="M37.52,11.04c-0.03,3.84-3.01,6.77-6.87,6.74c-3.77-0.02-6.7-3.1-6.65-6.97c0.05-3.75,3.03-6.68,6.78-6.67
			C34.57,4.15,37.55,7.2,37.52,11.04z"/>
		<path class="st0" d="M52.16,14.04c-0.02,3.1-2.52,5.58-5.67,5.6c-3.2,0.02-5.64-2.36-5.67-5.53c-0.03-3.28,2.38-5.77,5.6-5.8
			C49.58,8.28,52.19,10.88,52.16,14.04z"/>
		<path class="st0" d="M20.7,13.95c0.02,3.21-2.34,5.63-5.52,5.68c-3.24,0.05-5.79-2.41-5.82-5.61c-0.03-3.15,2.6-5.76,5.75-5.72
			C18.28,8.34,20.68,10.77,20.7,13.95z"/>
	</g>
</g>
</svg>
