<?xml version="1.0" encoding="utf-8"?>
<!-- Generator: Adobe Illustrator 25.1.0, SVG Export Plug-In . SVG Version: 6.00 Build 0)  -->
<svg version="1.1" id="Layer_1" xmlns="http://www.w3.org/2000/svg" xmlns:xlink="http://www.w3.org/1999/xlink" x="0px" y="0px"
	 viewBox="0 0 49.99 55.73" style="enable-background:new 0 0 49.99 55.73;" xml:space="preserve">
<style type="text/css">
	.st0{fill:url(#SVGID_1_);}
</style>
<g>
	<linearGradient id="SVGID_1_" gradientUnits="userSpaceOnUse" x1="25.9345" y1="5.7966" x2="28.4544" y2="49.5966">
		<stop  offset="0" style="stop-color:#1C83FD"/>
		<stop  offset="1" style="stop-color:#16FAFD"/>
	</linearGradient>
	<path class="st0" d="M46.11,22.74c-0.91,1.91-2.26,3.75-3.24,5.35c-2.24,3.66-4.73,7.17-7.22,10.67c-2.13,3.01-4.34,6.39-7.45,8.46
		c-3.47,2.31-7.11,0.19-9.55-2.57c-1.62-1.83-2.89-4.03-4.22-6.05c-0.23-0.34-0.47-0.92-0.52-1.31c0.64-0.03,1.28,0.4,1.85,0.65
		c2.36,1.05,5.4,1.05,7.92,0.65c2.57-0.41,5.03-1.44,7.05-3.08c1.65-1.33,2.98-3.04,3.93-4.93c1.07-2.16,1.33-4.27,1.6-6.62
		c0.03-0.3,0.09-0.61,0.24-0.88c0.59-1.01,1.73-1.17,2.04-2.45c-0.66,0.38-2.74,0.86-1.44-0.37c0.38-0.36,0.5-0.75,0.48-1.26
		c0,0.1-2.23,0.55-2.41,0.53c-1.22-0.12-2.2-1.16-3.43-1.4c-1.3-0.25-2.7,0-3.82,0.72c-1.47,0.96-2.39,2.71-2.34,4.46
		c0.01,0.43-0.01,1.01-0.43,1.13c-0.11,0.03-0.24,0.02-0.35,0c-2.92-0.38-5.74-1.56-8.05-3.38c-1.76-1.38-2.24-1.74-4.14-2.92
		c0.29,0.18,0.33,1.33,0.4,1.64c0.17,0.69,0.39,1.37,0.65,2.04c0.26,0.67,0.57,1.33,0.91,1.96c0.3,0.55,0.92,1.2,1.05,1.8
		c-0.45,0.21-1.12-0.27-1.58-0.37c-0.63-0.14-1.18-0.64-1.79-0.84c0.42,2.39,2.62,4.77,4.8,5.72c0.23,0.1,0.49,0.23,0.51,0.48
		c0.03,0.38-0.52,0.48-0.91,0.43c-0.69-0.09-1.38-0.17-2.06-0.26c1.14,2.01,3.47,2.96,5.63,3.77c-1.56,1.25-3.51,2-5.51,2.11
		c-1.9,0.1-2.58-2.69-3.28-4.09c-1.05-2.1-2.04-4.23-2.88-6.41c-1.3-3.37-2.66-7.37-2.43-11.02c0.2-3.09,1.81-5.22,4.56-6.49
		c0.85-0.39,1.75-0.67,2.71-0.66c5.83-0.86,11.81-0.4,17.56,0.8c2.92,0.61,5.8,1.41,8.61,2.39c3.69,1.28,7.64,3.39,7.53,7.94
		C47.08,20.31,46.68,21.54,46.11,22.74z"/>
</g>
</svg>
