<?xml version="1.0" encoding="utf-8"?>
<!-- Generator: Adobe Illustrator 25.1.0, SVG Export Plug-In . SVG Version: 6.00 Build 0)  -->
<svg version="1.1" id="Layer_1" xmlns="http://www.w3.org/2000/svg" xmlns:xlink="http://www.w3.org/1999/xlink" x="0px" y="0px"
	 viewBox="0 0 128.88 129.24" style="enable-background:new 0 0 128.88 129.24;" xml:space="preserve">
<style type="text/css">
	.st0{fill:#E6E6E6;}
</style>
<g>
	<path class="st0" d="M64.44,3.56c-33.67,0-61.06,27.39-61.06,61.06s27.39,61.06,61.06,61.06c33.67,0,61.06-27.39,61.06-61.06
		S98.11,3.56,64.44,3.56z M106.21,95.47c-3.11-11.01-9.19-19.87-19.05-25.92c-1.52-0.93-1.52-0.93-2.83,0.32
		c-0.32,0.3-0.62,0.61-0.95,0.89c-8.29,7.13-17.67,9.01-28.06,5.73c-4.39-1.39-8.08-3.97-11.28-7.25c-0.36-0.38-0.66-0.7-1.24-0.28
		c-2.19,1.59-4.55,2.97-6.58,4.74c-8.28,7.2-15.08,19.69-16.96,30.46C10.01,93.59,4.38,79.75,4.38,64.62
		c0-33.12,26.94-60.06,60.06-60.06S124.5,31.5,124.5,64.62c0,15.38-5.81,29.43-15.35,40.06C108.72,102.45,106.81,97.63,106.21,95.47
		z"/>
	<path class="st0" d="M90.18,46.68c-0.17,14.34-11.57,25.63-25.74,25.59C50.2,72.22,38.7,60.55,38.85,46.54
		C39,32.33,50.58,20.84,64.64,20.97C78.77,21.1,90.25,32.66,90.18,46.68z"/>
</g>
</svg>
