<?xml version="1.0" encoding="utf-8"?>
<!-- Generator: Adobe Illustrator 25.1.0, SVG Export Plug-In . SVG Version: 6.00 Build 0)  -->
<svg version="1.1" id="Layer_1" xmlns="http://www.w3.org/2000/svg" xmlns:xlink="http://www.w3.org/1999/xlink" x="0px" y="0px"
	 viewBox="0 0 49.99 55.73" style="enable-background:new 0 0 49.99 55.73;" xml:space="preserve">
<style type="text/css">
	.st0{fill:url(#SVGID_1_);}
	.st1{fill:url(#SVGID_2_);}
</style>
<g>
	<linearGradient id="SVGID_1_" gradientUnits="userSpaceOnUse" x1="50.8575" y1="27.1746" x2="8.2575" y2="28.1346">
		<stop  offset="0" style="stop-color:#ADEE52"/>
		<stop  offset="1" style="stop-color:#248547"/>
	</linearGradient>
	<path class="st0" d="M48.14,34.19c-1.07-2.94-2.73-5.71-4.63-8.17c-2.15-2.79-3.94-5.83-6.04-8.65c-2.15-2.89-5.31-6.71-8.99-7.62
		c-6.41-1.58-11.81,3.95-15.72,8.2c-4.14,4.5-7.75,9.58-9.99,15.3c-0.89,2.27-1.61,4.49-1.07,6.94c1.6,7.26,12.36,6.16,17.82,5.79
		c4.25-0.29,8.49-0.65,12.69-1.29c3.39-0.52,6.76-1.22,10.01-2.3C45.67,41.24,49.68,38.44,48.14,34.19z M36.89,32.48
		c-0.85,2.49-2.45,4.72-4.63,6.26c-3.48,2.44-8.16,2.77-12.11,1.34c-0.55-0.2-1.11-0.43-1.69-0.42c-0.41,0.01-0.81,0.15-1.2,0.28
		c-0.84,0.29-1.69,0.58-2.53,0.87c-0.59,0.2-1.68,0.85-2.3,0.79c-1.51-0.14,0.2-3.25,0.55-4.12c0.36-0.9,0.79-1.83,0.67-2.79
		c-0.08-0.67-0.42-1.27-0.69-1.88c-0.98-2.17-1.16-4.64-0.69-6.96c1.98-9.77,14.49-13.51,21.56-6.5c2.22,2.2,3.57,5.26,3.73,8.37
		C37.64,29.34,37.41,30.96,36.89,32.48z"/>
	<linearGradient id="SVGID_2_" gradientUnits="userSpaceOnUse" x1="50.8689" y1="27.6795" x2="8.2689" y2="28.6395">
		<stop  offset="0" style="stop-color:#ADEE52"/>
		<stop  offset="1" style="stop-color:#248547"/>
	</linearGradient>
	<path class="st1" d="M35.3,26.77c-0.32-2.21-1.33-4.32-3.01-5.95c-2.45-2.39-6.13-3.57-9.5-2.88c-7.16,1.46-10.78,10.06-7.04,16.27
		c0.12,0.21,0.26,0.41,0.32,0.64c0.11,0.39-0.93,3.74-1.23,3.74c1.28,0.02,2.23-1.2,3.58-1.05c0.55,0.06,1.08,0.26,1.6,0.45
		c5.03,1.83,10.77,0.66,13.77-4.11C35.16,31.7,35.65,29.17,35.3,26.77z M27.81,34.24c-2.4-0.34-4.85-1.76-6.52-3.49
		c-1.15-1.19-2.03-2.78-2.7-4.28c-0.36-0.82,0.06-2.17,0.55-2.86c0.38-0.54,1.65-1.41,2.3-0.84c0.12,0.1,0.19,0.25,0.26,0.4
		c0.43,0.93,1.38,2.22,0.85,3.27c-0.21,0.4-0.73,0.56-0.67,1.08c0.03,0.28,0.19,0.52,0.36,0.74c0.82,1.11,1.88,2.05,3.05,2.78
		c0.24,0.15,0.49,0.29,0.76,0.34c0.97,0.17,1.26-1.22,2.23-1.33c1.03-0.11,3.27,1.02,2.85,2.31c-0.14,0.43-0.36,0.85-0.68,1.18
		C29.75,34.24,28.74,34.38,27.81,34.24z"/>
</g>
</svg>
